<svg xmlns="http://www.w3.org/2000/svg" xmlns:xlink="http://www.w3.org/1999/xlink" version="1.1" id="Layer_1" x="0px"
  y="0px" viewBox="-3 -3 222 46" style="enable-background:new 0 0 276 40;" xml:space="preserve">
  <g id="deeditor_bgCarrier" stroke-width="0">
    <rect id="dee_c_e" x="-3" y="-3" width="282" height="46" rx="0" fill="#F9F9FE" strokewidth="0"
      preserveAspectRatio="xMidYMid meet" height="65" />
  </g>
  <style type="text/css">
    .st0 {
      fill: #faad14;
    }
  </style>
  <title>Logotype</title>
  <desc fill="#F9F9FE">Created with Sketch.</desc>
  <g>
    <g>
      <path class="st0"
        d="M0,31.1h4c1.1,0,2,0.3,2.6,0.9c0.5,0.5,0.7,1.1,0.7,2l0,0c0,1.4-0.7,2.3-1.8,2.7l2.2,3.1H5.2L3.4,37H1.8v2.8    H0V31.1z M3.8,35.3c0.9,0,1.4-0.5,1.4-1.2l0,0c0-0.8-0.6-1.2-1.5-1.2H1.8v2.5L3.8,35.3L3.8,35.3z"
        fill="#ffbe46" />
      <polygon class="st0"
        points="9.7,31.1 16.2,31.1 16.2,32.8 11.6,32.8 11.6,34.6 15.7,34.6 15.7,36.2 11.6,36.2 11.6,38.1     16.3,38.1 16.3,39.8 9.7,39.8   "
        fill="#ffbe46" />
      <polygon class="st0"
        points="18.8,31.1 20.5,31.1 24.7,36.4 24.7,31.1 26.5,31.1 26.5,39.8 24.9,39.8 20.6,34.3 20.6,39.8     18.8,39.8   "
        fill="#ffbe46" />
      <polygon class="st0" points="31.3,32.8 28.8,32.8 28.8,31.1 36,31.1 36,32.8 33.3,32.8 33.3,39.8 31.3,39.8   "
        fill="#ffbe46" />
      <path class="st0"
        d="M45.6,31.1h1.7l3.7,8.7h-2l-0.8-2h-3.7l-0.8,2h-2L45.6,31.1z M47.7,36.1l-1.1-2.8l-1.1,2.8H47.7z"
        fill="#ffbe46" />
      <path class="st0"
        d="M57.3,35.5L57.3,35.5c0-2.5,1.8-4.5,4.5-4.5c1.6,0,2.7,0.5,3.4,1.3L64,33.6c-0.7-0.6-1.3-1-2.3-1    c-1.4,0-2.6,1.2-2.6,2.7l0,0c0,1.4,1,2.8,2.6,2.8c1,0,1.6-0.4,2.3-1l1.2,1.2c-0.9,0.9-1.8,1.5-3.6,1.5    C59.2,39.9,57.3,38,57.3,35.5"
        fill="#ffbe46" />
      <path class="st0"
        d="M70.6,31.1h1.7l3.7,8.7h-2l-0.8-2h-3.7l-0.8,2h-2L70.6,31.1z M72.6,36.1l-1.1-2.8l-1.1,2.8H72.6z"
        fill="#ffbe46" />
      <path class="st0"
        d="M78.2,31.1h4c1.1,0,2,0.3,2.6,0.9c0.5,0.5,0.7,1.1,0.7,2l0,0c0,1.4-0.7,2.3-1.8,2.7l2.2,3.1h-2.3L81.8,37    h-1.5v2.8h-2C78.2,39.7,78.2,31.1,78.2,31.1z M82,35.3c0.9,0,1.4-0.5,1.4-1.2l0,0c0-0.8-0.6-1.2-1.5-1.2h-2v2.5L82,35.3L82,35.3z"
        fill="#ffbe46" />
      <path class="st0" d="M0,0.9h7.3v15.3h7.2v6.3H0V0.9z" fill="#ffbe46" />
      <path class="st0" d="M44.3,22.4H37V7h-5.3V0.9h17.9V7h-5.3V22.4z" fill="#ffbe46" />
      <path class="st0" d="M58.1,0.9l-3,8.6h-5l2.3-8.6C52.4,0.9,58.1,0.9,58.1,0.9z" fill="#ffbe46" />
      <path class="st0"
        d="M67.7,23.1c-0.9,0-1.7-0.1-2.6-0.2c-0.8-0.1-1.6-0.4-2.5-0.6c-0.8-0.3-1.5-0.6-2.2-1s-1.3-0.8-1.8-1.3    l4.4-4.8c0.5,0.5,1.2,1,2.1,1.4c0.8,0.4,1.7,0.6,2.6,0.6c0.4,0,0.8-0.1,1.1-0.2c0.3-0.1,0.5-0.4,0.5-0.8c0-0.2-0.1-0.4-0.2-0.5    s-0.3-0.3-0.6-0.4c-0.3-0.1-0.7-0.3-1.1-0.5c-0.5-0.2-1.1-0.4-1.8-0.6c-0.7-0.2-1.4-0.5-2.1-0.8c-0.7-0.3-1.2-0.7-1.7-1.2    s-0.9-1-1.2-1.7C60.2,9.8,60,9,60,7.9c0-1.3,0.3-2.5,0.8-3.4S62,2.8,63,2.2c0.8-0.6,1.8-1,2.9-1.3s2.2-0.4,3.2-0.4    c1.4,0,2.9,0.3,4.3,0.8c1.5,0.5,2.9,1.3,4,2.4l-4.5,4.6c-0.5-0.6-1.1-1-1.7-1.3c-0.7-0.3-1.3-0.5-2-0.5c-0.5,0-0.9,0.1-1.2,0.2    c-0.3,0.1-0.5,0.4-0.5,0.7S67.7,8,68,8.1c0.3,0.2,0.9,0.4,1.6,0.6c0.7,0,1.4,0.3,2.3,0.6c0.8,0.3,1.6,0.7,2.4,1.2    c0.7,0.5,1.3,1.1,1.7,2c0.5,0.7,0.7,1.6,0.7,2.8c0,1.3-0.3,2.5-0.8,3.4c-0.5,0.9-1.2,1.7-2.1,2.4c-0.8,0.6-1.7,1.1-2.9,1.4    C69.9,22.9,68.8,23.1,67.7,23.1z"
        fill="#ffbe46" />
      <path class="st0"
        d="M85.6,22.4V0.9h8c1.7,0,3.3,0.2,4.9,0.5c1.5,0.3,2.9,0.9,4.1,1.7s2.2,2,2.9,3.3c0.7,1.3,1,3.1,1,5.1    c0,1.8-0.3,3.5-1,4.9c-0.7,1.3-1.5,2.5-2.8,3.4c-1.1,0.9-2.5,1.5-3.9,2s-3,0.6-4.6,0.6H85.6z M92.6,7v9.1h1.3c1.7,0,3-0.4,3.9-1.1    c0.9-0.7,1.3-2,1.3-3.6c0-1.4-0.4-2.5-1.3-3.3C96.9,7.3,95.6,7,94.1,7H92.6z"
        fill="#ffbe46" />
      <path class="st0"
        d="M108.8,0.9h9.2c1,0,2.1,0.1,3.2,0.3c1,0.2,2,0.6,2.8,1.1s1.4,1.2,2,2.2s0.7,2.1,0.7,3.4s-0.3,2.5-0.9,3.5    s-1.5,1.7-2.8,2.4l5.4,8.7h-8.3l-4.1-7.7h-0.2v7.7h-7C108.8,22.5,108.8,0.9,108.8,0.9z M115.8,10h1.4c0.2,0,0.5,0,0.8-0.1    c0.3,0,0.5-0.1,0.8-0.3c0.2-0.1,0.5-0.3,0.6-0.5c0.2-0.2,0.2-0.5,0.2-0.9c0-0.4-0.1-0.7-0.2-0.9c-0.1-0.2-0.3-0.4-0.5-0.5    s-0.5-0.2-0.7-0.2c-0.3,0-0.5,0-0.7,0h-1.7L115.8,10z"
        fill="#ffbe46" />
      <path class="st0" d="M129.7,0.9h7.3v21.6h-7.3V0.9z" fill="#ffbe46" />
      <path class="st0" d="M137.9,0.9h8.2l3.6,13.4h0.1l3.4-13.4h8.2l-7.8,21.6h-8L137.9,0.9z" fill="#ffbe46" />
      <polygon class="st0"
        points="168.9,14.5 176.4,14.5 176.4,8.9 168.9,8.9 168.9,6.9 176.9,6.9 176.9,0.9 162,0.9 162,22.4     177.4,22.4 177.4,16.4 168.9,16.4   "
        fill="#ffbe46" />
      <polygon class="st0"
        points="22.6,14.5 30.1,14.5 30.1,8.9 22.6,8.9 22.6,6.9 30.6,6.9 30.6,0.9 15.8,0.9 15.8,22.4 31.1,22.4     31.1,16.4 22.6,16.4   "
        fill="#ffbe46" />
    </g>
    <g>
      <polygon class="st0" points="210.2,8.9 210.2,0.9 194.7,0.9 190.3,8.9   " fill="#ffbe46" />
      <polygon class="st0" points="187.3,14.5 183,22.4 210.2,22.4 210.2,14.5   " fill="#ffbe46" />
    </g>
  </g>
</svg>
